<?xml version="1.0" standalone="no"?>
<!DOCTYPE svg PUBLIC "-//W3C//DTD SVG 20010904//EN"
 "http://www.w3.org/TR/2001/REC-SVG-20010904/DTD/svg10.dtd">
<svg version="1.0" xmlns="http://www.w3.org/2000/svg"
 width="512.000000pt" height="512.000000pt" viewBox="0 0 512.000000 512.000000"
 preserveAspectRatio="xMidYMid meet">
<metadata>
Created by potrace 1.16, written by Peter Selinger 2001-2019
</metadata>
<g transform="translate(0.000000,512.000000) scale(0.100000,-0.100000)"
fill="#000000" stroke="none">
<path d="M2330 5114 c-251 -30 -411 -65 -602 -130 -940 -321 -1614 -1163
-1718 -2146 -13 -125 -13 -431 0 -556 60 -564 307 -1089 705 -1501 398 -411
897 -668 1475 -758 163 -25 577 -25 740 0 578 90 1077 347 1475 758 398 412
645 937 705 1501 13 125 13 431 0 556 -60 564 -307 1089 -705 1501 -395 409
-896 667 -1465 756 -101 16 -525 29 -610 19z m-124 -1373 c228 -292 274 -356
262 -366 -36 -35 -274 -215 -280 -213 -7 3 -558 706 -558 713 0 8 283 226 291
223 5 -2 133 -162 285 -357z m-432 -366 c236 -301 266 -344 266 -376 0 -20 7
-76 15 -125 63 -363 271 -665 585 -849 73 -42 196 -96 253 -110 22 -6 91 -88
309 -367 198 -254 277 -362 268 -368 -35 -22 -193 -42 -320 -42 -219 1 -399
43 -608 142 -526 250 -1033 874 -1182 1455 -42 164 -54 273 -47 443 8 193 37
321 112 487 37 83 44 90 66 68 10 -10 137 -171 283 -358z m1876 -1479 c151
-195 275 -358 274 -362 -1 -12 -266 -223 -280 -223 -13 -1 -559 693 -559 710
0 9 274 229 285 228 3 0 129 -159 280 -353z"/>
</g>
</svg>
